<?xml version="1.0" standalone="no"?>
<!DOCTYPE svg PUBLIC "-//W3C//DTD SVG 20010904//EN"
 "http://www.w3.org/TR/2001/REC-SVG-20010904/DTD/svg10.dtd">
<svg version="1.0" xmlns="http://www.w3.org/2000/svg"
 width="16.000000pt" height="16.000000pt" viewBox="0 0 16.000000 16.000000"
 preserveAspectRatio="xMidYMid meet">
<metadata>
Created by potrace 1.11, written by Peter Selinger 2001-2013
</metadata>
<g transform="translate(0.000000,16.000000) scale(0.007843,-0.007843)"
fill="#000000" stroke="none">
<path d="M878 2020 c-147 -24 -303 -85 -425 -168 -194 -132 -334 -331 -400
-569 -25 -87 -28 -115 -28 -253 0 -138 3 -166 28 -254 86 -310 306 -559 597
-675 453 -180 986 2 1231 421 265 452 135 1039 -294 1330 -88 60 -231 124
-327 148 -97 24 -294 34 -382 20z m-253 -442 c-8 -38 -35 -212 -35 -231 0 -15
7 -18 47 -15 l48 3 20 130 20 130 58 3 c54 3 57 2 57 -20 0 -21 -24 -175 -35
-225 -5 -21 -2 -23 40 -23 l45 0 0 -75 0 -75 -54 0 -53 0 -7 -52 c-4 -29 -9
-68 -12 -85 l-6 -33 51 0 51 0 0 -75 0 -75 -64 0 -64 0 -17 -115 -18 -115 -58
0 c-33 0 -59 3 -59 8 0 4 7 48 15 97 21 131 23 125 -34 125 l-49 0 -17 -115
-18 -115 -58 0 c-69 0 -66 -8 -44 125 8 50 15 93 15 98 0 4 -22 7 -50 7 l-50
0 0 75 0 75 64 0 63 0 7 53 c4 28 9 67 12 85 l6 32 -51 0 -51 0 0 75 0 75 59
0 c69 0 62 -11 86 140 9 58 18 111 20 118 3 8 25 12 65 12 57 0 60 -1 55 -22z
m751 -214 c19 -9 45 -34 58 -56 l24 -40 23 32 c35 47 97 80 151 80 60 0 106
-32 138 -95 25 -49 25 -53 28 -347 l3 -298 -95 0 -96 0 -1 228 c0 261 -6 295
-55 300 -21 2 -36 -4 -50 -19 -18 -19 -19 -40 -22 -265 l-3 -244 -99 0 -100 0
0 243 c0 262 -5 287 -53 287 -64 -1 -72 -31 -75 -297 l-4 -233 -94 0 -94 0 0
360 0 360 79 0 80 0 6 -44 7 -44 36 41 c61 66 136 85 208 51z"/>
<path d="M556 1148 c-3 -18 -8 -57 -12 -85 l-7 -53 50 0 50 0 12 69 c17 105
18 101 -38 101 -47 0 -49 -1 -55 -32z"/>
</g>
</svg>
